<?xml version="1.0" encoding="UTF-8" standalone="no"?>
<!DOCTYPE svg PUBLIC "-//W3C//DTD SVG 1.1//EN" "http://www.w3.org/Graphics/SVG/1.1/DTD/svg11.dtd">
<svg width="100%" height="100%" viewBox="0 0 2094 905" version="1.1" xmlns="http://www.w3.org/2000/svg" xmlns:xlink="http://www.w3.org/1999/xlink" xml:space="preserve" xmlns:serif="http://www.serif.com/" style="fill-rule:evenodd;clip-rule:evenodd;stroke-linejoin:round;stroke-miterlimit:2;">
    <rect id="Artboard1" x="0" y="0" width="2093.635" height="904.189" style="fill:none;"/>
    <g id="Artboard11" serif:id="Artboard1">
        <g transform="matrix(1,0,0,1,-589.794892,-688.064363)">
            <path d="M589.795,787.991L589.795,785.849C589.795,731.844 633.575,688.064 687.58,688.064L1218.617,688.064C1272.622,688.064 1316.402,731.844 1316.402,785.849L1316.402,1384.923C1316.402,1424.523 1292.518,1460.214 1255.911,1475.317L990.393,1584.863C966.507,1594.717 939.691,1594.717 915.804,1584.863L650.286,1475.317C621.757,1463.547 600.956,1439.273 593.164,1410.389L627.121,1410.389C634.074,1415.859 641.842,1420.439 650.286,1423.922L854.826,1508.31C878.712,1518.165 905.528,1518.165 929.414,1508.31L1133.955,1423.922C1170.562,1408.819 1194.446,1373.129 1194.446,1333.528L1194.446,862.402C1194.446,808.396 1150.666,764.617 1096.661,764.617L687.58,764.617C663.369,764.617 641.212,773.416 624.135,787.991L589.795,787.991Z"/>
        </g>
        <g transform="matrix(1,0,0,1,-95.572622,-441.865048)">
            <g transform="matrix(600,0,0,600,152.973977,1110.610138)">
                <path d="M0.047,-0.722L0.355,-0.722L0.355,-0.686L0.298,-0.686C0.278,-0.686 0.266,-0.682 0.26,-0.675C0.253,-0.668 0.25,-0.651 0.25,-0.624L0.25,-0.401L0.581,-0.401L0.581,-0.624C0.581,-0.652 0.578,-0.669 0.573,-0.676C0.567,-0.682 0.553,-0.686 0.532,-0.686L0.479,-0.686L0.479,-0.722L0.786,-0.722L0.786,-0.686L0.73,-0.686C0.716,-0.686 0.706,-0.684 0.7,-0.68C0.695,-0.677 0.69,-0.67 0.687,-0.662C0.685,-0.656 0.684,-0.642 0.684,-0.618L0.684,-0.099C0.684,-0.074 0.686,-0.058 0.69,-0.053C0.698,-0.042 0.714,-0.037 0.736,-0.037L0.786,-0.037L0.786,-0L0.479,-0L0.479,-0.037L0.532,-0.037C0.553,-0.037 0.567,-0.042 0.575,-0.054C0.579,-0.06 0.581,-0.076 0.581,-0.103L0.581,-0.354L0.25,-0.354L0.25,-0.099C0.25,-0.073 0.252,-0.058 0.256,-0.053C0.264,-0.042 0.278,-0.037 0.298,-0.037L0.355,-0.037L0.355,-0L0.047,-0L0.047,-0.037L0.106,-0.037C0.116,-0.037 0.125,-0.039 0.131,-0.043C0.137,-0.047 0.142,-0.053 0.145,-0.061C0.146,-0.066 0.147,-0.08 0.147,-0.103L0.147,-0.624C0.147,-0.651 0.144,-0.668 0.138,-0.675C0.132,-0.682 0.119,-0.686 0.099,-0.686L0.047,-0.686L0.047,-0.722Z" style="fill-rule:nonzero;"/>
            </g>
        </g>
        <g transform="matrix(1,0,0,1,-111.346557,105.662782)">
            <g transform="matrix(400,0,0,400,909.55926,436.820915)">
                <path d="M0.08,-0L0.08,-0.716L0.175,-0.716L0.175,-0.422L0.547,-0.422L0.547,-0.716L0.642,-0.716L0.642,-0L0.547,-0L0.547,-0.337L0.175,-0.337L0.175,-0L0.08,-0Z" style="fill-rule:nonzero;"/>
            </g>
            <g transform="matrix(400,0,0,400,1182.426447,436.820915)">
                <path d="M0.421,-0.167L0.512,-0.156C0.497,-0.103 0.471,-0.062 0.432,-0.032C0.393,-0.003 0.344,0.012 0.284,0.012C0.208,0.012 0.148,-0.012 0.103,-0.058C0.059,-0.105 0.037,-0.171 0.037,-0.255C0.037,-0.342 0.059,-0.41 0.104,-0.458C0.149,-0.506 0.207,-0.53 0.279,-0.53C0.348,-0.53 0.405,-0.507 0.449,-0.459C0.493,-0.412 0.515,-0.346 0.515,-0.26C0.515,-0.255 0.514,-0.247 0.514,-0.237L0.127,-0.237C0.131,-0.18 0.147,-0.136 0.176,-0.106C0.205,-0.076 0.241,-0.061 0.284,-0.061C0.316,-0.061 0.344,-0.069 0.367,-0.086C0.389,-0.103 0.408,-0.13 0.421,-0.167ZM0.132,-0.309L0.422,-0.309C0.418,-0.353 0.407,-0.385 0.389,-0.407C0.361,-0.441 0.324,-0.458 0.28,-0.458C0.239,-0.458 0.205,-0.444 0.178,-0.417C0.15,-0.39 0.135,-0.354 0.132,-0.309Z" style="fill-rule:nonzero;"/>
            </g>
            <g transform="matrix(400,0,0,400,1388.887385,436.820915)">
                <rect x="0.064" y="-0.716" width="0.088" height="0.716" style="fill-rule:nonzero;"/>
            </g>
            <g transform="matrix(400,0,0,400,1461.754572,436.820915)">
                <rect x="0.064" y="-0.716" width="0.088" height="0.716" style="fill-rule:nonzero;"/>
            </g>
            <g transform="matrix(400,0,0,400,1534.62176,436.820915)">
                <path d="M0.066,-0.615L0.066,-0.716L0.154,-0.716L0.154,-0.615L0.066,-0.615ZM0.066,-0L0.066,-0.519L0.154,-0.519L0.154,-0L0.066,-0Z" style="fill-rule:nonzero;"/>
            </g>
            <g transform="matrix(400,0,0,400,1607.488947,436.820915)">
                <path d="M0.066,-0L0.066,-0.519L0.145,-0.519L0.145,-0.445C0.183,-0.502 0.238,-0.53 0.31,-0.53C0.341,-0.53 0.37,-0.525 0.396,-0.513C0.422,-0.502 0.442,-0.487 0.455,-0.469C0.468,-0.451 0.477,-0.429 0.482,-0.404C0.486,-0.388 0.487,-0.36 0.487,-0.319L0.487,-0L0.399,-0L0.399,-0.315C0.399,-0.351 0.396,-0.378 0.389,-0.396C0.382,-0.413 0.37,-0.428 0.353,-0.438C0.335,-0.449 0.315,-0.454 0.292,-0.454C0.254,-0.454 0.222,-0.442 0.195,-0.418C0.167,-0.395 0.154,-0.35 0.154,-0.283L0.154,-0L0.066,-0Z" style="fill-rule:nonzero;"/>
            </g>
            <g transform="matrix(400,0,0,400,1813.949885,436.820915)">
                <path d="M0.05,0.043L0.135,0.056C0.139,0.082 0.149,0.101 0.165,0.113C0.187,0.13 0.217,0.138 0.254,0.138C0.295,0.138 0.326,0.13 0.349,0.113C0.371,0.097 0.386,0.074 0.394,0.045C0.398,0.027 0.4,-0.011 0.4,-0.068C0.361,-0.023 0.314,-0 0.256,-0C0.185,-0 0.13,-0.026 0.091,-0.077C0.052,-0.129 0.032,-0.19 0.032,-0.262C0.032,-0.312 0.041,-0.357 0.059,-0.399C0.077,-0.441 0.103,-0.473 0.137,-0.496C0.171,-0.519 0.211,-0.53 0.257,-0.53C0.318,-0.53 0.368,-0.506 0.408,-0.456L0.408,-0.519L0.489,-0.519L0.489,-0.07C0.489,0.01 0.481,0.068 0.465,0.101C0.448,0.135 0.422,0.162 0.386,0.181C0.351,0.201 0.307,0.21 0.255,0.21C0.193,0.21 0.143,0.197 0.105,0.169C0.067,0.141 0.049,0.099 0.05,0.043ZM0.123,-0.269C0.123,-0.201 0.136,-0.151 0.163,-0.12C0.19,-0.088 0.224,-0.073 0.265,-0.073C0.305,-0.073 0.339,-0.088 0.366,-0.119C0.394,-0.15 0.407,-0.199 0.407,-0.266C0.407,-0.329 0.393,-0.377 0.365,-0.409C0.337,-0.441 0.303,-0.458 0.263,-0.458C0.224,-0.458 0.191,-0.442 0.164,-0.41C0.136,-0.378 0.123,-0.331 0.123,-0.269Z" style="fill-rule:nonzero;"/>
            </g>
            <g transform="matrix(400,0,0,400,2020.410822,436.820915)">
                <path d="M0.031,-0.155L0.118,-0.168C0.123,-0.134 0.136,-0.107 0.158,-0.088C0.181,-0.07 0.212,-0.061 0.252,-0.061C0.292,-0.061 0.322,-0.069 0.342,-0.085C0.361,-0.102 0.371,-0.121 0.371,-0.143C0.371,-0.163 0.362,-0.179 0.345,-0.19C0.333,-0.198 0.303,-0.208 0.255,-0.22C0.191,-0.236 0.146,-0.25 0.121,-0.262C0.096,-0.274 0.078,-0.29 0.065,-0.311C0.052,-0.332 0.045,-0.355 0.045,-0.381C0.045,-0.404 0.051,-0.425 0.061,-0.445C0.072,-0.465 0.086,-0.481 0.104,-0.494C0.118,-0.504 0.137,-0.513 0.16,-0.52C0.184,-0.527 0.209,-0.53 0.236,-0.53C0.277,-0.53 0.313,-0.524 0.344,-0.513C0.374,-0.501 0.397,-0.485 0.412,-0.465C0.426,-0.445 0.436,-0.418 0.442,-0.385L0.356,-0.373C0.352,-0.4 0.341,-0.421 0.322,-0.436C0.303,-0.451 0.277,-0.458 0.243,-0.458C0.202,-0.458 0.174,-0.451 0.156,-0.438C0.139,-0.425 0.13,-0.409 0.13,-0.391C0.13,-0.38 0.134,-0.369 0.141,-0.36C0.148,-0.351 0.16,-0.343 0.175,-0.337C0.184,-0.334 0.209,-0.326 0.252,-0.314C0.315,-0.298 0.358,-0.284 0.383,-0.274C0.407,-0.263 0.426,-0.248 0.44,-0.228C0.454,-0.207 0.461,-0.182 0.461,-0.152C0.461,-0.123 0.453,-0.095 0.436,-0.07C0.419,-0.044 0.394,-0.024 0.362,-0.01C0.33,0.005 0.293,0.012 0.252,0.012C0.185,0.012 0.134,-0.002 0.098,-0.03C0.063,-0.058 0.041,-0.1 0.031,-0.155Z" style="fill-rule:nonzero;"/>
            </g>
            <g transform="matrix(83.333333,0,0,83.333333,909.55926,533.663363)">
                <path d="M0.464,0.098C0.358,0.098 0.276,0.059 0.218,-0.019C0.159,-0.097 0.13,-0.207 0.13,-0.35C0.13,-0.49 0.159,-0.599 0.218,-0.676C0.276,-0.753 0.358,-0.791 0.464,-0.791L0.487,-0.791L0.487,-0.703L0.474,-0.703C0.396,-0.703 0.337,-0.672 0.295,-0.61C0.253,-0.549 0.232,-0.462 0.232,-0.35C0.232,-0.236 0.253,-0.147 0.295,-0.084C0.337,-0.022 0.396,0.01 0.474,0.01L0.487,0.01L0.487,0.098L0.464,0.098Z" style="fill-rule:nonzero;"/>
            </g>
            <g transform="matrix(83.333333,0,0,83.333333,955.054052,533.663363)">
                <path d="M0.4,-0L0.4,-0.337C0.4,-0.37 0.392,-0.395 0.376,-0.413C0.36,-0.431 0.337,-0.439 0.308,-0.439C0.226,-0.439 0.186,-0.39 0.186,-0.291L0.155,-0.424L0.195,-0.424C0.198,-0.459 0.211,-0.485 0.233,-0.502C0.256,-0.519 0.289,-0.527 0.332,-0.527C0.387,-0.527 0.429,-0.511 0.459,-0.478C0.489,-0.444 0.504,-0.397 0.504,-0.337L0.504,-0L0.4,-0ZM0.082,-0L0.082,-0.732L0.186,-0.732L0.186,-0L0.082,-0Z" style="fill-rule:nonzero;"/>
            </g>
            <g transform="matrix(83.333333,0,0,83.333333,1000.548843,533.663363)">
                <path d="M0.293,0.01C0.221,0.01 0.166,-0.014 0.126,-0.061C0.086,-0.107 0.066,-0.174 0.066,-0.259C0.066,-0.344 0.086,-0.411 0.126,-0.457C0.166,-0.504 0.221,-0.527 0.293,-0.527C0.365,-0.527 0.421,-0.504 0.46,-0.457C0.5,-0.411 0.52,-0.344 0.52,-0.259C0.52,-0.174 0.5,-0.107 0.46,-0.061C0.421,-0.014 0.365,0.01 0.293,0.01ZM0.293,-0.083C0.331,-0.083 0.36,-0.098 0.381,-0.129C0.402,-0.16 0.412,-0.203 0.412,-0.259C0.412,-0.315 0.402,-0.358 0.381,-0.389C0.36,-0.419 0.331,-0.435 0.293,-0.435C0.255,-0.435 0.226,-0.419 0.205,-0.389C0.184,-0.358 0.174,-0.315 0.174,-0.259C0.174,-0.203 0.184,-0.16 0.205,-0.129C0.226,-0.098 0.255,-0.083 0.293,-0.083Z" style="fill-rule:nonzero;"/>
            </g>
            <g transform="matrix(83.333333,0,0,83.333333,1046.043635,533.663363)">
                <path d="M0.428,-0L0.428,-0.396C0.428,-0.431 0.414,-0.449 0.388,-0.449C0.354,-0.449 0.337,-0.426 0.337,-0.379L0.302,-0.453L0.342,-0.453C0.343,-0.473 0.351,-0.491 0.366,-0.505C0.38,-0.52 0.401,-0.527 0.429,-0.527C0.465,-0.527 0.491,-0.518 0.507,-0.499C0.523,-0.479 0.531,-0.448 0.531,-0.405L0.531,-0L0.428,-0ZM0.055,-0L0.055,-0.518L0.146,-0.518L0.158,-0.408L0.158,-0L0.055,-0ZM0.249,-0L0.249,-0.405C0.249,-0.435 0.235,-0.449 0.208,-0.449C0.175,-0.449 0.158,-0.426 0.158,-0.379L0.128,-0.453L0.161,-0.453C0.165,-0.503 0.195,-0.527 0.25,-0.527C0.277,-0.527 0.298,-0.518 0.314,-0.5C0.329,-0.481 0.337,-0.453 0.337,-0.415L0.337,-0L0.249,-0Z" style="fill-rule:nonzero;"/>
            </g>
            <g transform="matrix(83.333333,0,0,83.333333,1091.538427,533.663363)">
                <path d="M0.343,0.01C0.255,0.01 0.186,-0.013 0.138,-0.06C0.09,-0.106 0.066,-0.173 0.066,-0.26C0.066,-0.344 0.087,-0.41 0.127,-0.457C0.168,-0.504 0.226,-0.527 0.3,-0.527C0.37,-0.527 0.424,-0.506 0.462,-0.464C0.5,-0.422 0.52,-0.36 0.52,-0.279C0.52,-0.256 0.519,-0.233 0.517,-0.213L0.153,-0.213L0.153,-0.292L0.426,-0.292C0.426,-0.339 0.415,-0.374 0.393,-0.399C0.37,-0.424 0.34,-0.437 0.301,-0.437C0.257,-0.437 0.223,-0.422 0.198,-0.392C0.174,-0.362 0.162,-0.319 0.162,-0.265C0.162,-0.205 0.179,-0.159 0.212,-0.128C0.246,-0.097 0.293,-0.081 0.354,-0.081C0.376,-0.081 0.397,-0.082 0.418,-0.085C0.439,-0.087 0.46,-0.09 0.481,-0.095L0.494,-0.004C0.464,0.002 0.436,0.006 0.41,0.007C0.385,0.009 0.362,0.01 0.343,0.01Z" style="fill-rule:nonzero;"/>
            </g>
            <g transform="matrix(83.333333,0,0,83.333333,1182.52801,533.663363)">
                <path d="M0.182,0.104L0.182,-0.798L0.279,-0.798L0.279,0.104L0.182,0.104ZM0.27,0.104L0.27,0.012L0.487,0.012L0.487,0.104L0.27,0.104ZM0.27,-0.705L0.27,-0.798L0.487,-0.798L0.487,-0.705L0.27,-0.705Z" style="fill-rule:nonzero;"/>
            </g>
            <g transform="matrix(83.333333,0,0,83.333333,1228.022802,533.663363)">
                <path d="M0.301,0.104L0.301,-0.798L0.404,-0.798L0.404,0.104L0.301,0.104ZM0.099,0.104L0.099,0.012L0.311,0.012L0.311,0.104L0.099,0.104ZM0.099,-0.705L0.099,-0.798L0.311,-0.798L0.311,-0.705L0.099,-0.705Z" style="fill-rule:nonzero;"/>
            </g>
            <g transform="matrix(83.333333,0,0,83.333333,1273.517593,533.663363)">
                <path d="M0.099,0.098L0.099,0.01L0.112,0.01C0.189,0.01 0.249,-0.022 0.291,-0.084C0.333,-0.147 0.354,-0.236 0.354,-0.35C0.354,-0.462 0.333,-0.549 0.291,-0.61C0.249,-0.672 0.189,-0.703 0.112,-0.703L0.099,-0.703L0.099,-0.791L0.122,-0.791C0.228,-0.791 0.31,-0.753 0.369,-0.676C0.427,-0.599 0.456,-0.49 0.456,-0.35C0.456,-0.207 0.427,-0.097 0.369,-0.019C0.31,0.059 0.228,0.098 0.122,0.098L0.099,0.098Z" style="fill-rule:nonzero;"/>
            </g>
        </g>
    </g>
</svg>
